<?xml version="1.0" encoding="UTF-8" standalone="no"?>
<!-- Created with Inkscape (http://www.inkscape.org/) -->

<svg
   xmlns:dc="http://purl.org/dc/elements/1.1/"
   xmlns:cc="http://creativecommons.org/ns#"
   xmlns:rdf="http://www.w3.org/1999/02/22-rdf-syntax-ns#"
   xmlns:svg="http://www.w3.org/2000/svg"
   xmlns="http://www.w3.org/2000/svg"
   xmlns:sodipodi="http://sodipodi.sourceforge.net/DTD/sodipodi-0.dtd"
   xmlns:inkscape="http://www.inkscape.org/namespaces/inkscape"
   id="svg2"
   version="1.1"
   inkscape:version="0.48.2 r9819"
   width="418.11023"
   height="329.52756"
   xml:space="preserve"
   sodipodi:docname="perry-cpu.svg"><metadata
     id="metadata8"><rdf:RDF><cc:Work
         rdf:about=""><dc:format>image/svg+xml</dc:format><dc:type
           rdf:resource="http://purl.org/dc/dcmitype/StillImage" /><dc:title></dc:title></cc:Work></rdf:RDF></metadata><defs
     id="defs6" /><sodipodi:namedview
     pagecolor="#ffffff"
     bordercolor="#666666"
     borderopacity="1"
     objecttolerance="10"
     gridtolerance="10"
     guidetolerance="10"
     inkscape:pageopacity="0"
     inkscape:pageshadow="2"
     inkscape:window-width="1280"
     inkscape:window-height="955"
     id="namedview4"
     showgrid="true"
     units="mm"
     inkscape:document-units="mm"
     inkscape:zoom="1.44"
     inkscape:cx="217.28631"
     inkscape:cy="135.18504"
     inkscape:window-x="1024"
     inkscape:window-y="25"
     inkscape:window-maximized="1"
     inkscape:current-layer="g10"><inkscape:grid
       type="xygrid"
       id="grid3255"
       units="mm"
       empspacing="5"
       visible="true"
       enabled="true"
       snapvisiblegridlinesonly="true" /></sodipodi:namedview><g
     id="g10"
     inkscape:groupmode="layer"
     inkscape:label="vhdl programming by example"
     transform="matrix(1.25,0,0,-1.25,-50.4,407.82765)"><path
       d="m 256.15465,127.31332 -116,0 0,85.5 -42.500002,0"
       style="fill:none;stroke:#000000;stroke-width:1;stroke-linecap:butt;stroke-linejoin:miter;stroke-miterlimit:1;stroke-opacity:1;stroke-dasharray:none"
       id="path28"
       inkscape:connector-curvature="0" /><path
       d="m 98.470638,212.81332 1.752002,-2.882 -0.098,-0.066 -4.700002,1.86701 c -1.638,0.36 -3.275,0.72099 -4.91301,1.08099 1.63801,0.36 3.27501,0.72099 4.91301,1.08099 l 4.700002,1.86701 0.098,-0.05 -1.752002,-2.89799"
       style="fill:#000000;fill-opacity:1;fill-rule:nonzero;stroke:none"
       id="path30"
       inkscape:connector-curvature="0" /><path
       d="m 255.65465,113.31332 -24,0 0,-6.5 -125.5,0 0,31 -8.500002,0"
       style="fill:none;stroke:#000000;stroke-width:1;stroke-linecap:butt;stroke-linejoin:miter;stroke-miterlimit:1;stroke-opacity:1;stroke-dasharray:none"
       id="path32"
       inkscape:connector-curvature="0" /><path
       d="m 98.470638,137.81332 1.752002,-2.882 -0.098,-0.066 -4.700002,1.86701 c -1.638,0.36 -3.275,0.72099 -4.91301,1.08099 1.63801,0.36 3.27501,0.72099 4.91301,1.08099 l 4.700002,1.86701 0.098,-0.05 -1.752002,-2.89799"
       style="fill:#000000;fill-opacity:1;fill-rule:nonzero;stroke:none"
       id="path34"
       inkscape:connector-curvature="0" /><path
       d="m 255.15465,101.81332 -13.5,0 0,-10.500004 -144.500002,0"
       style="fill:none;stroke:#000000;stroke-width:1;stroke-linecap:butt;stroke-linejoin:miter;stroke-miterlimit:1;stroke-opacity:1;stroke-dasharray:none"
       id="path36"
       inkscape:connector-curvature="0" /><path
       d="m 97.970638,91.313316 1.752,-2.881994 -0.098,-0.066 -4.7,1.867004 c -1.638,0.36 -3.275,0.72099 -4.91301,1.08099 1.63801,0.36 3.27501,0.72099 4.91301,1.08099 l 4.7,1.86701 0.098,-0.05 -1.752,-2.89799"
       style="fill:#000000;fill-opacity:1;fill-rule:nonzero;stroke:none"
       id="path38"
       inkscape:connector-curvature="0" /><path
       d="m 326.15465,173.81332 0,80 -36.5,0"
       style="fill:none;stroke:#000000;stroke-width:1;stroke-linecap:butt;stroke-linejoin:miter;stroke-miterlimit:1;stroke-opacity:1;stroke-dasharray:none"
       id="path40"
       inkscape:connector-curvature="0" /><path
       d="m 290.47064,253.81332 1.752,-2.882 -0.098,-0.066 -4.7,1.86701 c -1.638,0.36 -3.275,0.72099 -4.91301,1.08099 1.63801,0.36 3.27501,0.72099 4.91301,1.08099 l 4.7,1.86701 0.098,-0.05 -1.752,-2.89799"
       style="fill:#000000;fill-opacity:1;fill-rule:nonzero;stroke:none"
       id="path42"
       inkscape:connector-curvature="0" /><path
       d="m 337.65465,175.81332 0,49.5 20,0 0,77.5 -9,0"
       style="fill:none;stroke:#000000;stroke-width:1;stroke-linecap:butt;stroke-linejoin:miter;stroke-miterlimit:1;stroke-opacity:1;stroke-dasharray:none"
       id="path44"
       inkscape:connector-curvature="0" /><path
       d="m 349.47064,302.81332 1.752,-2.882 -0.098,-0.066 -4.7,1.86701 c -1.638,0.36 -3.275,0.72099 -4.91301,1.08099 1.63801,0.36 3.27501,0.72099 4.91301,1.08099 l 4.7,1.86701 0.098,-0.05 -1.752,-2.89799"
       style="fill:#000000;fill-opacity:1;fill-rule:nonzero;stroke:none"
       id="path46"
       inkscape:connector-curvature="0" /><path
       d="m 264.15465,248.81332 0,-66"
       style="fill:none;stroke:#000000;stroke-width:1;stroke-linecap:butt;stroke-linejoin:miter;stroke-miterlimit:1;stroke-opacity:1;stroke-dasharray:none"
       id="path48"
       inkscape:connector-curvature="0" /><path
       d="m 264.15465,183.62931 2.882,1.752 0.066,-0.098 -1.86701,-4.7 c -0.36,-1.638 -0.72099,-3.275 -1.08099,-4.91301 -0.36,1.63801 -0.72099,3.27501 -1.08099,4.91301 l -1.86701,4.7 0.05,0.098 2.89799,-1.752"
       style="fill:#000000;fill-opacity:1;fill-rule:nonzero;stroke:none"
       id="path50"
       inkscape:connector-curvature="0" /><path
       d="m 300.15465,176.31332 0,94 -42,0 0,32.5 -44,0"
       style="fill:none;stroke:#000000;stroke-width:1;stroke-linecap:butt;stroke-linejoin:miter;stroke-miterlimit:1;stroke-opacity:1;stroke-dasharray:none"
       id="path52"
       inkscape:connector-curvature="0" /><path
       d="m 214.97064,302.81332 1.752,-2.882 -0.098,-0.066 -4.7,1.86701 c -1.638,0.36 -3.275,0.72099 -4.91301,1.08099 1.63801,0.36 3.27501,0.72099 4.91301,1.08099 l 4.7,1.86701 0.098,-0.05 -1.752,-2.89799"
       style="fill:#000000;fill-opacity:1;fill-rule:nonzero;stroke:none"
       id="path54"
       inkscape:connector-curvature="0" /><path
       d="m 255.65465,169.81332 -11,0 0,52.5 -19,0 0,23 -5,0"
       style="fill:none;stroke:#000000;stroke-width:1;stroke-linecap:butt;stroke-linejoin:miter;stroke-miterlimit:1;stroke-opacity:1;stroke-dasharray:none"
       id="path56"
       inkscape:connector-curvature="0" /><path
       d="m 221.47064,245.31332 1.752,-2.882 -0.098,-0.066 -4.7,1.86701 c -1.638,0.36 -3.275,0.72099 -4.91301,1.08099 1.63801,0.36 3.27501,0.72099 4.91301,1.08099 l 4.7,1.86701 0.098,-0.05 -1.752,-2.89799"
       style="fill:#000000;fill-opacity:1;fill-rule:nonzero;stroke:none"
       id="path58"
       inkscape:connector-curvature="0" /><path
       d="m 252.65465,162.31332 -24.5,0 0,45.5 -23,0"
       style="fill:none;stroke:#000000;stroke-width:1;stroke-linecap:butt;stroke-linejoin:miter;stroke-miterlimit:1;stroke-opacity:1;stroke-dasharray:none"
       id="path60"
       inkscape:connector-curvature="0" /><path
       d="m 205.97064,207.81332 1.752,-2.882 -0.098,-0.066 -4.7,1.86701 c -1.638,0.36 -3.275,0.72099 -4.91301,1.08099 1.63801,0.36 3.27501,0.72099 4.91301,1.08099 l 4.7,1.86701 0.098,-0.05 -1.752,-2.89799"
       style="fill:#000000;fill-opacity:1;fill-rule:nonzero;stroke:none"
       id="path62"
       inkscape:connector-curvature="0" /><path
       d="m 254.65465,145.81332 -43.5,0 0,33.5 -7.5,0"
       style="fill:none;stroke:#000000;stroke-width:1;stroke-linecap:butt;stroke-linejoin:miter;stroke-miterlimit:1;stroke-opacity:1;stroke-dasharray:none"
       id="path64"
       inkscape:connector-curvature="0" /><path
       d="m 206.47064,179.31332 1.752,-2.882 -0.098,-0.066 -4.7,1.86701 c -1.638,0.36 -3.275,0.72099 -4.91301,1.08099 1.63801,0.36 3.27501,0.72099 4.91301,1.08099 l 4.7,1.86701 0.098,-0.05 -1.752,-2.89799"
       style="fill:#000000;fill-opacity:1;fill-rule:nonzero;stroke:none"
       id="path66"
       inkscape:connector-curvature="0" /><path
       d="m 66.154646,309.31332 0,12.5 250.000004,0 0,-164.5 m -186.5,164 0,-244.499998"
       style="fill:none;stroke:#000000;stroke-width:1;stroke-linecap:butt;stroke-linejoin:miter;stroke-miterlimit:1;stroke-opacity:1;stroke-dasharray:none"
       id="path68"
       inkscape:connector-curvature="0" /><path
       d="m 43.154646,293.81332 47.000002,0 0,17 -47.000002,0 0,-17 z"
       style="fill:#ffffff;fill-opacity:1;fill-rule:nonzero;stroke:#000000;stroke-width:1;stroke-linecap:butt;stroke-linejoin:miter;stroke-miterlimit:1;stroke-opacity:1;stroke-dasharray:none"
       id="path70"
       inkscape:connector-curvature="0" /><text
       transform="matrix(1,3e-4,0,-1,0,0)"
       id="text72"
       x="57.561245"
       y="-299.04327"
       style="font-size:11.99999904999999956px;-inkscape-font-specification:Century Schoolbook L Medium;font-family:Century Schoolbook L;font-weight:500;font-style:normal;font-stretch:normal;font-variant:normal"><tspan
         style="font-size:7.99999952000000025px;font-variant:normal;font-weight:500;writing-mode:lr-tb;fill:#000000;fill-opacity:1;fill-rule:nonzero;stroke:none;font-family:Century Schoolbook L;-inkscape-font-specification:Century Schoolbook L Medium;font-style:normal;font-stretch:normal"
         x="57.561245 63.337246 67.337242 71.633247"
         y="-299.04327"
         sodipodi:role="line"
         id="tspan74">Reg0</tspan></text>
<path
       d="m 43.154646,276.81332 47.000002,0 0,17 -47.000002,0 0,-17 z"
       style="fill:#ffffff;fill-opacity:1;fill-rule:nonzero;stroke:#000000;stroke-width:1;stroke-linecap:butt;stroke-linejoin:miter;stroke-miterlimit:1;stroke-opacity:1;stroke-dasharray:none"
       id="path76"
       inkscape:connector-curvature="0" /><text
       transform="matrix(1,3e-4,0,-1,0,0)"
       id="text78"
       x="57.561245"
       y="-282.04337"
       style="font-size:11.99999904999999956px;-inkscape-font-specification:Century Schoolbook L Medium;font-family:Century Schoolbook L;font-weight:500;font-style:normal;font-stretch:normal;font-variant:normal"><tspan
         style="font-size:7.99999952000000025px;font-variant:normal;font-weight:500;writing-mode:lr-tb;fill:#000000;fill-opacity:1;fill-rule:nonzero;stroke:none;font-family:Century Schoolbook L;-inkscape-font-specification:Century Schoolbook L Medium;font-style:normal;font-stretch:normal"
         x="57.561245 63.337246 67.337242 71.633247"
         y="-282.04337"
         sodipodi:role="line"
         id="tspan80">Reg1</tspan></text>
<path
       d="m 43.154646,259.81332 47.000002,0 0,17 -47.000002,0 0,-17 z"
       style="fill:#ffffff;fill-opacity:1;fill-rule:nonzero;stroke:#000000;stroke-width:1;stroke-linecap:butt;stroke-linejoin:miter;stroke-miterlimit:1;stroke-opacity:1;stroke-dasharray:none"
       id="path82"
       inkscape:connector-curvature="0" /><text
       transform="matrix(1,3e-4,0,-1,0,0)"
       id="text84"
       x="57.561245"
       y="-265.04337"
       style="font-size:11.99999904999999956px;-inkscape-font-specification:Century Schoolbook L Medium;font-family:Century Schoolbook L;font-weight:500;font-style:normal;font-stretch:normal;font-variant:normal"><tspan
         style="font-size:7.99999952000000025px;font-variant:normal;font-weight:500;writing-mode:lr-tb;fill:#000000;fill-opacity:1;fill-rule:nonzero;stroke:none;font-family:Century Schoolbook L;-inkscape-font-specification:Century Schoolbook L Medium;font-style:normal;font-stretch:normal"
         x="57.561245 63.337246 67.337242 71.633247"
         y="-265.04337"
         sodipodi:role="line"
         id="tspan86">Reg2</tspan></text>
<path
       d="m 43.154646,242.81332 47.000002,0 0,17 -47.000002,0 0,-17 z"
       style="fill:#ffffff;fill-opacity:1;fill-rule:nonzero;stroke:#000000;stroke-width:1;stroke-linecap:butt;stroke-linejoin:miter;stroke-miterlimit:1;stroke-opacity:1;stroke-dasharray:none"
       id="path88"
       inkscape:connector-curvature="0" /><text
       transform="matrix(1,3e-4,0,-1,0,0)"
       id="text90"
       x="57.561245"
       y="-248.04335"
       style="font-size:11.99999904999999956px;-inkscape-font-specification:Century Schoolbook L;font-family:Century Schoolbook L"><tspan
         style="font-size:7.99999952000000025px;font-variant:normal;font-weight:normal;writing-mode:lr-tb;fill:#000000;fill-opacity:1;fill-rule:nonzero;stroke:none;font-family:Century Schoolbook L;-inkscape-font-specification:Century Schoolbook L"
         x="57.561245 63.337246 67.337242 71.633247"
         y="-248.04335"
         sodipodi:role="line"
         id="tspan92">Reg3</tspan></text>
<path
       d="m 43.154646,203.31332 47.000002,0 0,39.5 -47.000002,0 0,-39.5 z"
       style="fill:#ffffff;fill-opacity:1;fill-rule:nonzero;stroke:#000000;stroke-width:1;stroke-linecap:butt;stroke-linejoin:miter;stroke-miterlimit:1;stroke-opacity:1;stroke-dasharray:none"
       id="path94"
       inkscape:connector-curvature="0" /><text
       transform="matrix(1,3e-4,0,-1,0,0)"
       id="text96"
       x="64.397133"
       y="-228.04329"
       style="font-size:11.99999904999999956px;-inkscape-font-specification:Century Schoolbook L;font-family:Century Schoolbook L"><tspan
         style="font-size:7.99999952000000025px;font-variant:normal;font-weight:normal;writing-mode:lr-tb;fill:#000000;fill-opacity:1;fill-rule:nonzero;stroke:none;font-family:Century Schoolbook L;-inkscape-font-specification:Century Schoolbook L"
         x="64.397133"
         y="-228.04329"
         id="tspan98">•</tspan><tspan
         style="font-size:7.99999952000000025px;font-variant:normal;font-weight:normal;writing-mode:lr-tb;fill:#000000;fill-opacity:1;fill-rule:nonzero;stroke:none;font-family:Century Schoolbook L;-inkscape-font-specification:Century Schoolbook L"
         x="64.397133"
         y="-211.2937"
         id="tspan100">•</tspan></text>
<path
       d="m 43.154646,186.31332 47.000002,0 0,17 -47.000002,0 0,-17 z"
       style="fill:#ffffff;fill-opacity:1;fill-rule:nonzero;stroke:#000000;stroke-width:1;stroke-linecap:butt;stroke-linejoin:miter;stroke-miterlimit:1;stroke-opacity:1;stroke-dasharray:none"
       id="path102"
       inkscape:connector-curvature="0" /><text
       transform="matrix(1,3e-4,0,-1,0,0)"
       id="text104"
       x="57.561245"
       y="-191.54335"
       style="font-size:11.99999904999999956px;-inkscape-font-specification:Century Schoolbook L Medium;font-family:Century Schoolbook L;font-weight:500;font-style:normal;font-stretch:normal;font-variant:normal"><tspan
         style="font-size:7.99999952000000025px;font-variant:normal;font-weight:500;writing-mode:lr-tb;fill:#000000;fill-opacity:1;fill-rule:nonzero;stroke:none;font-family:Century Schoolbook L;-inkscape-font-specification:Century Schoolbook L Medium;font-style:normal;font-stretch:normal"
         x="57.561245 63.337246 67.337242 71.633247"
         y="-191.54335"
         sodipodi:role="line"
         id="tspan106">Reg7</tspan><tspan
         style="font-size:7.99999952000000025px;font-variant:normal;font-weight:500;writing-mode:lr-tb;fill:#000000;fill-opacity:1;fill-rule:nonzero;stroke:none;font-family:Century Schoolbook L;-inkscape-font-specification:Century Schoolbook L Medium;font-style:normal;font-stretch:normal"
         x="98.506767 104.28277 108.28277 112.57877 116.28277 120.28277"
         y="-228.28015"
         sodipodi:role="line"
         id="tspan108">Regsel</tspan></text>
<path
       d="m 66.154646,78.313322 0,59.499998"
       style="fill:none;stroke:#000000;stroke-width:1;stroke-linecap:butt;stroke-linejoin:miter;stroke-miterlimit:1;stroke-opacity:1;stroke-dasharray:none"
       id="path110"
       inkscape:connector-curvature="0" /><path
       d="m 43.154646,129.31332 47.000002,0 0,17 -47.000002,0 0,-17 z"
       style="fill:#ffffff;fill-opacity:1;fill-rule:nonzero;stroke:#000000;stroke-width:1;stroke-linecap:butt;stroke-linejoin:miter;stroke-miterlimit:1;stroke-opacity:1;stroke-dasharray:none"
       id="path112"
       inkscape:connector-curvature="0" /><text
       transform="matrix(1,3e-4,0,-1,0,0)"
       id="text114"
       x="51.341446"
       y="-134.54332"
       style="font-size:11.99999904999999956px;-inkscape-font-specification:Century Schoolbook L Medium;font-family:Century Schoolbook L;font-weight:500;font-style:normal;font-stretch:normal;font-variant:normal"><tspan
         style="font-size:7.99999952000000025px;font-variant:normal;font-weight:500;writing-mode:lr-tb;fill:#000000;fill-opacity:1;fill-rule:nonzero;stroke:none;font-family:Century Schoolbook L;-inkscape-font-specification:Century Schoolbook L Medium;font-style:normal;font-stretch:normal"
         x="51.341446 56.677448 60.22945 64.229439 68.525444 74.301445 79.189445"
         y="-134.54332"
         sodipodi:role="line"
         id="tspan116">ProgCnt</tspan></text>
<path
       d="m 43.154646,84.313322 47.000002,0 0,16.999998 -47.000002,0 0,-16.999998 z"
       style="fill:#ffffff;fill-opacity:1;fill-rule:nonzero;stroke:#000000;stroke-width:1;stroke-linecap:butt;stroke-linejoin:miter;stroke-miterlimit:1;stroke-opacity:1;stroke-dasharray:none"
       id="path118"
       inkscape:connector-curvature="0" /><text
       transform="matrix(1,3e-4,0,-1,0,0)"
       id="text120"
       x="50.529446"
       y="-89.543266"
       style="font-size:11.99999904999999956px;-inkscape-font-specification:Century Schoolbook L Medium;font-family:Century Schoolbook L;font-weight:500;font-style:normal;font-stretch:normal;font-variant:normal"><tspan
         style="font-size:7.99999952000000025px;font-variant:normal;font-weight:500;writing-mode:lr-tb;fill:#000000;fill-opacity:1;fill-rule:nonzero;stroke:none;font-family:Century Schoolbook L;-inkscape-font-specification:Century Schoolbook L Medium;font-style:normal;font-stretch:normal"
         x="50.529446 56.305447 60.897449 65.489441 69.041443 74.817444 78.817444"
         y="-89.543266"
         sodipodi:role="line"
         id="tspan122">AddrReg</tspan><tspan
         style="font-size:7.99999952000000025px;font-variant:normal;font-weight:500;writing-mode:lr-tb;fill:#000000;fill-opacity:1;fill-rule:nonzero;stroke:none;font-family:Century Schoolbook L;-inkscape-font-specification:Century Schoolbook L Medium;font-style:normal;font-stretch:normal"
         x="47.117447 52.893444 57.485447 62.07745 65.62944 68.293442 72.741447 77.189445 79.413445 83.861443"
         y="-67.543266"
         sodipodi:role="line"
         id="tspan124">Addr(15:0)</tspan><tspan
         style="font-size:7.99999952000000025px;font-variant:normal;font-weight:500;writing-mode:lr-tb;fill:#000000;fill-opacity:1;fill-rule:nonzero;stroke:none;font-family:Century Schoolbook L;-inkscape-font-specification:Century Schoolbook L Medium;font-style:normal;font-stretch:normal"
         x="109.59104 115.81505 120.26304 123.37504 127.82304 130.48705 134.93504 139.38306 141.60706 146.05505"
         y="-67.524864"
         sodipodi:role="line"
         id="tspan126">Data(15:0)</tspan></text>
<path
       d="m 66.154646,115.31332 63.500004,0 m 0,23.5 47.5,0 0,109 m -18,73.5 0,-65 m 29.5,65 0,-65 m 83.5,65 0,-65"
       style="fill:none;stroke:#000000;stroke-width:1;stroke-linecap:butt;stroke-linejoin:miter;stroke-miterlimit:1;stroke-opacity:1;stroke-dasharray:none"
       id="path128"
       inkscape:connector-curvature="0" /><path
       d="m 142.15465,233.31332 70.5,0 0,27.5 -70.5,0 0,-27.5 z"
       style="fill:#ffffff;fill-opacity:1;fill-rule:nonzero;stroke:#000000;stroke-width:1;stroke-linecap:butt;stroke-linejoin:miter;stroke-miterlimit:1;stroke-opacity:1;stroke-dasharray:none"
       id="path130"
       inkscape:connector-curvature="0" /><text
       transform="matrix(1,3e-4,0,-1,0,0)"
       id="text132"
       x="167.83875"
       y="-243.26038"
       style="font-size:11.99999904999999956px;-inkscape-font-specification:Century Schoolbook L;font-family:Century Schoolbook L"><tspan
         style="font-size:7.99999952000000025px;font-variant:normal;font-weight:normal;writing-mode:lr-tb;fill:#000000;fill-opacity:1;fill-rule:nonzero;stroke:none;font-family:Century Schoolbook L;-inkscape-font-specification:Century Schoolbook L"
         x="167.83875 173.61475 178.95074"
         y="-243.26038"
         sodipodi:role="line"
         id="tspan134">ALU</tspan></text>
<path
       d="m 252.15465,97.813316 94,0 0,78.000004 -94,0 0,-78.000004 z"
       style="fill:#ffffff;fill-opacity:1;fill-rule:nonzero;stroke:#000000;stroke-width:1;stroke-linecap:butt;stroke-linejoin:miter;stroke-miterlimit:1;stroke-opacity:1;stroke-dasharray:none"
       id="path136"
       inkscape:connector-curvature="0" /><text
       transform="matrix(1,3e-4,0,-1,0,0)"
       id="text138"
       x="285.23083"
       y="-132.22354"
       style="font-size:11.99999904999999956px;-inkscape-font-specification:Century Schoolbook L;font-family:Century Schoolbook L"><tspan
         style="font-size:7.99999952000000025px;font-variant:normal;font-weight:normal;writing-mode:lr-tb;fill:#000000;fill-opacity:1;fill-rule:nonzero;stroke:none;font-family:Century Schoolbook L;-inkscape-font-specification:Century Schoolbook L"
         x="285.23083 291.00684 295.00684 299.89484 303.00684 306.55884 310.55884"
         y="-132.22354"
         sodipodi:role="line"
         id="tspan140">Control</tspan><tspan
         style="font-size:7.99999952000000025px;font-variant:normal;font-weight:normal;writing-mode:lr-tb;fill:#000000;fill-opacity:1;fill-rule:nonzero;stroke:none;font-family:Century Schoolbook L;-inkscape-font-specification:Century Schoolbook L"
         x="253.59892 259.37491 263.37491 267.82291 272.41492"
         y="-67.733955"
         sodipodi:role="line"
         id="tspan142">Ready</tspan><tspan
         style="font-size:7.99999952000000025px;font-variant:normal;font-weight:normal;writing-mode:lr-tb;fill:#000000;fill-opacity:1;fill-rule:nonzero;stroke:none;font-family:Century Schoolbook L;-inkscape-font-specification:Century Schoolbook L"
         x="292.23083 298.00684 300.23083"
         y="-67.723557"
         sodipodi:role="line"
         id="tspan144">R/W</tspan><tspan
         style="font-size:7.99999952000000025px;font-variant:normal;font-weight:normal;writing-mode:lr-tb;fill:#000000;fill-opacity:1;fill-rule:nonzero;stroke:none;font-family:Century Schoolbook L;-inkscape-font-specification:Century Schoolbook L"
         x="324.10275 329.87875 337.43076"
         y="-67.71315"
         sodipodi:role="line"
         id="tspan146">VMA</tspan></text>
<path
       d="m 155.15465,199.31332 42.5,0 0,18 -42.5,0 0,-18 z"
       style="fill:#ffffff;fill-opacity:1;fill-rule:nonzero;stroke:#000000;stroke-width:1;stroke-linecap:butt;stroke-linejoin:miter;stroke-miterlimit:1;stroke-opacity:1;stroke-dasharray:none"
       id="path148"
       inkscape:connector-curvature="0" /><text
       transform="matrix(1,3e-4,0,-1,0,0)"
       id="text150"
       x="163.76685"
       y="-205.26039"
       style="font-size:11.99999904999999956px;-inkscape-font-specification:Century Schoolbook L Medium;font-family:Century Schoolbook L;font-weight:500;font-style:normal;font-stretch:normal;font-variant:normal"><tspan
         style="font-size:7.99999952000000025px;font-variant:normal;font-weight:500;writing-mode:lr-tb;fill:#000000;fill-opacity:1;fill-rule:nonzero;stroke:none;font-family:Century Schoolbook L;-inkscape-font-specification:Century Schoolbook L Medium;font-style:normal;font-stretch:normal"
         x="163.76685 168.80685 173.69485 176.21486 178.87885 181.99084 185.99084"
         y="-205.26039"
         sodipodi:role="line"
         id="tspan152">Shifter</tspan><tspan
         style="font-size:7.99999952000000025px;font-variant:normal;font-weight:500;writing-mode:lr-tb;fill:#000000;fill-opacity:1;fill-rule:nonzero;stroke:none;font-family:Century Schoolbook L;-inkscape-font-specification:Century Schoolbook L Medium;font-style:normal;font-stretch:normal"
         x="205.93077 210.97076 215.85876 218.37877 221.04277 224.15477 227.85878 231.85878"
         y="-212.74759"
         sodipodi:role="line"
         id="tspan154">Shiftsel</tspan><tspan
         style="font-size:7.99999952000000025px;font-variant:normal;font-weight:500;writing-mode:lr-tb;fill:#000000;fill-opacity:1;fill-rule:nonzero;stroke:none;font-family:Century Schoolbook L;-inkscape-font-specification:Century Schoolbook L Medium;font-style:normal;font-stretch:normal"
         x="217.45078 223.22678 225.74677 230.63477 234.33878 238.33878"
         y="-251.24513"
         sodipodi:role="line"
         id="tspan156">Alusel</tspan></text>
<path
       d="m 155.15465,169.81332 42.5,0 0,18 -42.5,0 0,-18 z"
       style="fill:#ffffff;fill-opacity:1;fill-rule:nonzero;stroke:#000000;stroke-width:1;stroke-linecap:butt;stroke-linejoin:miter;stroke-miterlimit:1;stroke-opacity:1;stroke-dasharray:none"
       id="path158"
       inkscape:connector-curvature="0" /><text
       transform="matrix(1,3e-4,0,-1,0,0)"
       id="text160"
       x="162.50685"
       y="-175.76036"
       style="font-size:11.99999904999999956px;-inkscape-font-specification:Century Schoolbook L Medium;font-family:Century Schoolbook L;font-weight:500;font-style:normal;font-stretch:normal;font-variant:normal"><tspan
         style="font-size:7.99999952000000025px;font-variant:normal;font-weight:500;writing-mode:lr-tb;fill:#000000;fill-opacity:1;fill-rule:nonzero;stroke:none;font-family:Century Schoolbook L;-inkscape-font-specification:Century Schoolbook L Medium;font-style:normal;font-stretch:normal"
         x="162.50685 168.73085 173.61885 176.73085 182.50685 186.50685"
         y="-175.76036"
         sodipodi:role="line"
         id="tspan162">OutReg</tspan><tspan
         style="font-size:7.99999952000000025px;font-variant:normal;font-weight:500;writing-mode:lr-tb;fill:#000000;fill-opacity:1;fill-rule:nonzero;stroke:none;font-family:Century Schoolbook L;-inkscape-font-specification:Century Schoolbook L Medium;font-style:normal;font-stretch:normal"
         x="144.45085 149.78685 153.33885 157.33885 161.63486 165.33885 169.33885"
         y="-111.26597"
         sodipodi:role="line"
         id="tspan164">Progsel</tspan><tspan
         style="font-size:7.99999952000000025px;font-variant:normal;font-weight:500;writing-mode:lr-tb;fill:#000000;fill-opacity:1;fill-rule:nonzero;stroke:none;font-family:Century Schoolbook L;-inkscape-font-specification:Century Schoolbook L Medium;font-style:normal;font-stretch:normal"
         x="150.78693 156.56293 161.15494 165.74693 169.29893 173.00293 177.00293"
         y="-94.263489"
         sodipodi:role="line"
         id="tspan166">Addrsel</tspan><tspan
         style="font-size:7.99999952000000025px;font-variant:normal;font-weight:500;writing-mode:lr-tb;fill:#000000;fill-opacity:1;fill-rule:nonzero;stroke:none;font-family:Century Schoolbook L;-inkscape-font-specification:Century Schoolbook L Medium;font-style:normal;font-stretch:normal"
         x="214.93102 221.15501 226.04301 229.15501 232.85901 236.85901"
         y="-150.24509"
         sodipodi:role="line"
         id="tspan168">Outsel</tspan></text>
<path
       d="m 172.15465,296.31332 34.5,0 0,14.5 -34.5,0 0,-14.5 z"
       style="fill:#ffffff;fill-opacity:1;fill-rule:nonzero;stroke:#000000;stroke-width:1;stroke-linecap:butt;stroke-linejoin:miter;stroke-miterlimit:1;stroke-opacity:1;stroke-dasharray:none"
       id="path170"
       inkscape:connector-curvature="0" /><text
       transform="matrix(1,3e-4,0,-1,0,0)"
       id="text172"
       x="176.71085"
       y="-300.75665"
       style="font-size:11.99999904999999956px;-inkscape-font-specification:Century Schoolbook L Medium;font-family:Century Schoolbook L;font-weight:500;font-style:normal;font-stretch:normal;font-variant:normal"><tspan
         style="font-size:7.99999952000000025px;font-variant:normal;font-weight:500;writing-mode:lr-tb;fill:#000000;fill-opacity:1;fill-rule:nonzero;stroke:none;font-family:Century Schoolbook L;-inkscape-font-specification:Century Schoolbook L Medium;font-style:normal;font-stretch:normal"
         x="176.71085 182.93484 187.52686 193.30286 197.30286"
         y="-300.75665"
         sodipodi:role="line"
         id="tspan174">OpReg</tspan><tspan
         style="font-size:7.99999952000000025px;font-variant:normal;font-weight:500;writing-mode:lr-tb;fill:#000000;fill-opacity:1;fill-rule:nonzero;stroke:none;font-family:Century Schoolbook L;-inkscape-font-specification:Century Schoolbook L Medium;font-style:normal;font-stretch:normal"
         x="221.59877 227.82277 232.41476 238.19077 242.19077 246.48677 250.19078 254.19078"
         y="-309.24136"
         sodipodi:role="line"
         id="tspan176">OpRegsel</tspan></text>
<path
       d="m 292.15465,296.31332 48.5,0 0,14.5 -48.5,0 0,-14.5 z"
       style="fill:#ffffff;fill-opacity:1;fill-rule:nonzero;stroke:#000000;stroke-width:1;stroke-linecap:butt;stroke-linejoin:miter;stroke-miterlimit:1;stroke-opacity:1;stroke-dasharray:none"
       id="path178"
       inkscape:connector-curvature="0" /><text
       transform="matrix(1,3e-4,0,-1,0,0)"
       id="text180"
       x="299.86295"
       y="-300.71848"
       style="font-size:11.99999904999999956px;-inkscape-font-specification:Century Schoolbook L Medium;font-family:Century Schoolbook L;font-weight:500;font-style:normal;font-stretch:normal;font-variant:normal"><tspan
         style="font-size:7.99999952000000025px;font-variant:normal;font-weight:500;writing-mode:lr-tb;fill:#000000;fill-opacity:1;fill-rule:nonzero;stroke:none;font-family:Century Schoolbook L;-inkscape-font-specification:Century Schoolbook L Medium;font-style:normal;font-stretch:normal"
         x="299.86295 303.11893 308.00693 311.71094 314.82294 318.37494 324.15094 328.15094"
         y="-300.71848"
         sodipodi:role="line"
         id="tspan182">InstrReg</tspan><tspan
         style="font-size:7.99999952000000025px;font-variant:normal;font-weight:500;writing-mode:lr-tb;fill:#000000;fill-opacity:1;fill-rule:nonzero;stroke:none;font-family:Century Schoolbook L;-inkscape-font-specification:Century Schoolbook L Medium;font-style:normal;font-stretch:normal"
         x="345.78687 349.04285 353.93085 357.63486 360.74686 364.29886 368.00287 372.00287"
         y="-308.70569"
         sodipodi:role="line"
         id="tspan184">Instrsel</tspan><tspan
         style="font-size:7.99999952000000025px;font-variant:normal;font-weight:500;writing-mode:lr-tb;fill:#000000;fill-opacity:1;fill-rule:nonzero;stroke:none;font-family:Century Schoolbook L;-inkscape-font-specification:Century Schoolbook L Medium;font-style:normal;font-stretch:normal"
         x="350.65494 356.43094 358.95093 362.95093 366.50293"
         y="-170.70885"
         sodipodi:role="line"
         id="tspan186">Clock</tspan><tspan
         style="font-size:7.99999952000000025px;font-variant:normal;font-weight:500;writing-mode:lr-tb;fill:#000000;fill-opacity:1;fill-rule:nonzero;stroke:none;font-family:Century Schoolbook L;-inkscape-font-specification:Century Schoolbook L Medium;font-style:normal;font-stretch:normal"
         x="350.65494 356.43094 360.43094 364.13495 368.13495"
         y="-140.70885"
         sodipodi:role="line"
         id="tspan188">Reset</tspan></text>
<path
       d="m 188.15465,277.81332 65,0 0,-21.5"
       style="fill:none;stroke:#000000;stroke-width:1;stroke-linecap:butt;stroke-linejoin:miter;stroke-miterlimit:1;stroke-opacity:1;stroke-dasharray:none"
       id="path190"
       inkscape:connector-curvature="0" /><path
       d="m 245.65465,246.81332 34.5,0 0,14.5 -34.5,0 0,-14.5 z"
       style="fill:#ffffff;fill-opacity:1;fill-rule:nonzero;stroke:#000000;stroke-width:1;stroke-linecap:butt;stroke-linejoin:miter;stroke-miterlimit:1;stroke-opacity:1;stroke-dasharray:none"
       id="path192"
       inkscape:connector-curvature="0" /><rect
       style="color:#000000;fill:#ffffff;stroke:none;stroke-width:0.35433071999999999;marker:none;visibility:visible;display:inline;overflow:visible;enable-background:accumulate;fill-opacity:1"
       id="rect4025"
       width="14.173228"
       height="14.173228"
       x="272.83466"
       y="120.47244"
       transform="matrix(0.8,0,0,-0.8,40.32,326.26212)" /><text
       transform="matrix(1,3e-4,0,-1,0,0)"
       id="text194"
       x="251.91475"
       y="-251.23454"
       style="font-size:11.99999905px;stroke-width:0.28346458;stroke-miterlimit:4;stroke-dasharray:none;font-family:Century Schoolbook L;-inkscape-font-specification:Century Schoolbook L"><tspan
         style="font-size:7.99999952px;font-variant:normal;font-weight:normal;writing-mode:lr-tb;fill:#000000;fill-opacity:1;fill-rule:nonzero;stroke:none;font-family:Century Schoolbook L;-inkscape-font-specification:Century Schoolbook L"
         x="251.91475 257.69073 261.69073 268.80273"
         y="-251.23454"
         sodipodi:role="line"
         id="tspan196">Comp</tspan><tspan
         style="font-size:7.99999952px;font-variant:normal;font-weight:normal;writing-mode:lr-tb;fill:#000000;fill-opacity:1;fill-rule:nonzero;stroke:none;font-family:Century Schoolbook L;-inkscape-font-specification:Century Schoolbook L"
         x="319.80264 325.57864 329.57864 336.69064 341.28265 344.98666 348.98666"
         y="-258.71298"
         sodipodi:role="line"
         id="tspan198">Compsel</tspan><tspan
         style="font-size:7.99999952px;font-variant:normal;font-weight:normal;writing-mode:lr-tb;fill:#000000;fill-opacity:1;fill-rule:nonzero;stroke:none;font-family:Century Schoolbook L;-inkscape-font-specification:Century Schoolbook L"
         x="251.91475"
         y="0"
         sodipodi:role="line"
         id="tspan200" /><tspan
         style="font-size:7.99999952px;font-variant:normal;font-weight:normal;writing-mode:lr-tb;fill:#000000;fill-opacity:1;fill-rule:nonzero;stroke:none;font-family:Century Schoolbook L;-inkscape-font-specification:Century Schoolbook L"
         x="245.91475 251.69075 255.69075 262.80273 267.39474 271.39474 276.28275"
         sodipodi:role="line"
         id="tspan202"
         y="-222.73454">Compout</tspan></text>
<path
       d="m 265.65465,78.813322 0,11.499994"
       style="fill:none;stroke:#000000;stroke-width:1;stroke-linecap:butt;stroke-linejoin:miter;stroke-miterlimit:1;stroke-opacity:1;stroke-dasharray:none"
       id="path204"
       inkscape:connector-curvature="0" /><path
       d="m 265.65465,89.497332 -2.882,-1.752 -0.066,0.098 1.86701,4.699994 c 0.36,1.638 0.72099,3.275 1.08099,4.91301 0.36,-1.63801 0.72099,-3.27501 1.08099,-4.91301 l 1.86701,-4.699994 -0.05,-0.098 -2.89799,1.752"
       style="fill:#000000;fill-opacity:1;fill-rule:nonzero;stroke:none"
       id="path206"
       inkscape:connector-curvature="0" /><path
       d="m 299.65465,97.313316 0,-11.499994"
       style="fill:none;stroke:#000000;stroke-width:1;stroke-linecap:butt;stroke-linejoin:miter;stroke-miterlimit:1;stroke-opacity:1;stroke-dasharray:none"
       id="path208"
       inkscape:connector-curvature="0" /><path
       d="m 299.65465,86.629312 2.882,1.752 0.066,-0.098 -1.86701,-4.7 c -0.36,-1.638 -0.72099,-3.275 -1.08099,-4.91301 -0.36,1.63801 -0.72099,3.27501 -1.08099,4.91301 l -1.86701,4.7 0.05,0.098 2.89799,-1.752"
       style="fill:#000000;fill-opacity:1;fill-rule:nonzero;stroke:none"
       id="path210"
       inkscape:connector-curvature="0" /><path
       d="m 332.65465,97.313316 0,-11.499994"
       style="fill:none;stroke:#000000;stroke-width:1;stroke-linecap:butt;stroke-linejoin:miter;stroke-miterlimit:1;stroke-opacity:1;stroke-dasharray:none"
       id="path212"
       inkscape:connector-curvature="0" /><path
       d="m 332.65465,86.629312 2.882,1.752 0.066,-0.098 -1.86701,-4.7 c -0.36,-1.638 -0.72099,-3.275 -1.08099,-4.91301 -0.36,1.63801 -0.72099,3.27501 -1.08099,4.91301 l -1.86701,4.7 0.05,0.098 2.89799,-1.752"
       style="fill:#000000;fill-opacity:1;fill-rule:nonzero;stroke:none"
       id="path214"
       inkscape:connector-curvature="0" /><path
       d="m 363.65465,162.81332 -10,0"
       style="fill:none;stroke:#000000;stroke-width:1;stroke-linecap:butt;stroke-linejoin:miter;stroke-miterlimit:1;stroke-opacity:1;stroke-dasharray:none"
       id="path216"
       inkscape:connector-curvature="0" /><path
       d="m 354.47064,162.81332 1.752,-2.882 -0.098,-0.066 -4.7,1.86701 c -1.638,0.36 -3.275,0.72099 -4.91301,1.08099 1.63801,0.36 3.27501,0.72099 4.91301,1.08099 l 4.7,1.86701 0.098,-0.05 -1.752,-2.89799"
       style="fill:#000000;fill-opacity:1;fill-rule:nonzero;stroke:none"
       id="path218"
       inkscape:connector-curvature="0" /><path
       d="m 363.65465,133.31332 -10,0"
       style="fill:none;stroke:#000000;stroke-width:1;stroke-linecap:butt;stroke-linejoin:miter;stroke-miterlimit:1;stroke-opacity:1;stroke-dasharray:none"
       id="path220"
       inkscape:connector-curvature="0" /><path
       d="m 354.47064,133.31332 1.752,-2.882 -0.098,-0.066 -4.7,1.86701 c -1.638,0.36 -3.275,0.72099 -4.91301,1.08099 1.63801,0.36 3.27501,0.72099 4.91301,1.08099 l 4.7,1.86701 0.098,-0.05 -1.752,-2.89799"
       style="fill:#000000;fill-opacity:1;fill-rule:nonzero;stroke:none"
       id="path222"
       inkscape:connector-curvature="0" /></g></svg>